<?xml version="1.0" encoding="UTF-8" standalone="no"?>
<!DOCTYPE svg  PUBLIC '-//W3C//DTD SVG 1.1//EN'  'http://www.w3.org/Graphics/SVG/1.1/DTD/svg11.dtd'>
<svg xmlns="http://www.w3.org/2000/svg">
<defs>
<font id="GothamHTF-Light" horiz-adv-x="640">
<font-face underline-position="-123" font-weight="300" descent="-200" panose-1="0 0 0 0 0 0 0 0 0 0" units-per-em="1000" unicode-range="U+0020-00FE" bbox="-18 -163 1052 898" x-height="510" underline-thickness="20" font-family="Gotham HTF Light" ascent="800" cap-height="700"/>
<missing-glyph horiz-adv-x="1000"/>
<glyph glyph-name=".notdef" horiz-adv-x="1000"/>
<glyph glyph-name=".null" horiz-adv-x="0"/>
<glyph glyph-name="nonmarkingreturn" horiz-adv-x="333"/>
<glyph glyph-name="space" horiz-adv-x="300" unicode=" "/>
<glyph glyph-name="exclam" horiz-adv-x="252" unicode="!" d="M159 0h-66v85h66v-85zM97 700h58v-70l-15 -447h-28l-15 447v70z"/>
<glyph glyph-name="quotedbl" horiz-adv-x="410" unicode='&quot;' d="M68 446l35 254h65v-5l-71 -249h-29zM248 446l35 254h65v-5l-71 -249h-29z"/>
<glyph glyph-name="numbersign" horiz-adv-x="700" unicode="#" d="M474 470h-207l-41 -236h207zM650 470h-128l-41 -236h129v-47h-137l-32 -187h-48l32 187h-207l-32 -187h-48l32 187h-121v47h129l41 236h-130v47h138l31 183h48l-31 -183h207l31 183h48l-31 -183h120v-47z"/>
<glyph glyph-name="dollar" horiz-adv-x="632" unicode="$" d="M508 181q0 54 -35 86t-130 54v-276q74 2 119.5 40t45.5 96zM299 382v273q-72 -1 -116.5 -39t-44.5 -93q0 -53 34 -85.5t127 -55.5zM559 185q0 -79 -59.5 -130t-154.5 -55v-98h-48v99q-129 11 -237 107l33 39q97 -91 206 -100v284q-112 25 -162 69t-50 119 q0 76 59.5 127.5t150.5 53.5v58h48v-60q102 -8 193 -82l-33 -39q-74 65 -162 76v-281q114 -24 165 -68.5t51 -118.5z"/>
<glyph glyph-name="percent" horiz-adv-x="824" unicode="%" d="M717 170q0 59 -30 98t-73 39q-44 0 -72.5 -38.5t-28.5 -96.5q0 -59 30 -98t73 -39q44 0 72.5 38.5t28.5 96.5zM311 528q0 59 -30 98t-73 39q-44 0 -72.5 -38.5t-28.5 -96.5q0 -59 30 -98t73 -39q44 0 72.5 38.5t28.5 96.5zM769 172q0 -74 -43.5 -127t-111.5 -53 q-67 0 -110 52.5t-43 125.5q0 74 43.5 127t111.5 53q67 0 110 -52.5t43 -125.5zM696 700l-514 -700h-54l514 700h54zM363 530q0 -74 -43.5 -127t-111.5 -53q-67 0 -110 52.5t-43 125.5q0 74 43.5 127t111.5 53q67 0 110 -52.5t43 -125.5z"/>
<glyph glyph-name="ampersand" horiz-adv-x="696" unicode="&amp;" d="M468 145l-207 214q-80 -27 -120 -72.5t-40 -99.5q0 -65 46.5 -108.5t117.5 -43.5q109 0 203 110zM436 557q0 47 -32 79t-79 32q-53 0 -87 -32.5t-34 -81.5q0 -34 17 -64.5t64 -80.5q151 48 151 148zM663 20l-41 -34l-121 125q-104 -121 -237 -121q-93 0 -154 54.5 t-61 140.5q0 139 181 206q-42 46 -60 82t-18 79q0 69 49.5 114.5t125.5 45.5q68 0 114.5 -44.5t46.5 -108.5q0 -123 -172 -182l184 -189q48 67 91 170l47 -19q-51 -115 -104 -186z"/>
<glyph glyph-name="quotesingle" horiz-adv-x="230" unicode="&apos;" d="M68 446l35 254h65v-5l-71 -249h-29z"/>
<glyph glyph-name="parenleft" horiz-adv-x="430" unicode="(" d="M369 682q-246 -151 -246 -395t246 -395l-21 -33q-134 76 -205.5 185t-71.5 243t71.5 243t205.5 185z"/>
<glyph glyph-name="parenright" horiz-adv-x="430" unicode=")" d="M61 682l21 33q134 -76 205.5 -185t71.5 -243t-71.5 -243t-205.5 -185l-21 33q246 151 246 395t-246 395z"/>
<glyph glyph-name="asterisk" horiz-adv-x="430" unicode="*" d="M355 498l-22 -37l-106 72l9 -127h-42l9 127l-106 -72l-22 37l118 56l-118 56l22 37l106 -72l-9 127h42l-9 -127l106 72l22 -37l-118 -56z"/>
<glyph glyph-name="plus" d="M295 376v215h50v-215h217v-48h-217v-215h-50v215h-217v48h217z" unicode="+"/>
<glyph glyph-name="comma" horiz-adv-x="230" unicode="," d="M53 -82q56 28 56 73v9h-27v85h66v-74q0 -47 -19 -74t-64 -44z"/>
<glyph glyph-name="hyphen" horiz-adv-x="408" unicode="-" d="M338 269h-268v56h268v-56z"/>
<glyph glyph-name="period" horiz-adv-x="230" unicode="." d="M148 0h-66v85h66v-85z"/>
<glyph glyph-name="slash" horiz-adv-x="500" unicode="/" d="M454 798h49l-472 -926h-49z"/>
<glyph glyph-name="zero" horiz-adv-x="710" unicode="0" d="M591 349q0 128 -66 222t-171 94t-170 -93t-65 -221t66 -222t171 -94t170 93t65 221zM645 351q0 -98 -35 -180t-102.5 -132.5t-153.5 -50.5t-153 50t-101.5 131.5t-34.5 179.5t35 180t102.5 132.5t153.5 50.5t153 -50t101.5 -131.5t34.5 -179.5z"/>
<glyph glyph-name="one" horiz-adv-x="335" unicode="1" d="M30 646l160 59h40v-705h-51v651l-135 -46z"/>
<glyph glyph-name="two" horiz-adv-x="590" unicode="2" d="M306 664q-64 0 -111.5 -32t-93.5 -98l-39 26q50 76 106 113t143 37q89 0 148.5 -55t59.5 -138q0 -69 -38.5 -126.5t-136.5 -146.5l-214 -194h396v-50h-478v39l261 236q87 79 121 131.5t34 107.5q0 66 -46.5 108t-111.5 42z"/>
<glyph glyph-name="three" horiz-adv-x="610" unicode="3" d="M457 651h-367v49h438v-37l-237 -271q108 -6 178 -56.5t70 -142.5q0 -90 -67 -147.5t-161 -57.5q-160 0 -257 126l40 33q88 -112 218 -112q72 0 122.5 44t50.5 112q0 72 -60.5 112.5t-157.5 40.5h-38l-13 29z"/>
<glyph glyph-name="four" horiz-adv-x="664" unicode="4" d="M445 216v414l-334 -414h334zM448 705h47v-489h114v-45h-114v-171h-50v171h-379l-18 39z"/>
<glyph glyph-name="five" horiz-adv-x="605" unicode="5" d="M102 361l20 339h393v-50h-347l-17 -262q78 38 155 38q103 0 171.5 -59.5t68.5 -152.5q0 -99 -69 -162.5t-175 -63.5q-68 0 -132 31.5t-113 81.5l37 37q103 -103 210 -103q82 0 135 51t53 126q0 74 -53.5 120.5t-138.5 46.5q-77 0 -158 -44z"/>
<glyph glyph-name="six" horiz-adv-x="642" unicode="6" d="M522 217q0 73 -53.5 121t-136.5 48t-139 -53t-56 -121q0 -76 56.5 -126.5t141.5 -50.5q83 0 135 52.5t52 129.5zM551 631l-33 -40q-83 74 -173 74q-103 0 -166 -96t-63 -250v-17q76 130 219 130q99 0 170 -60.5t71 -152.5q0 -100 -70.5 -165.5t-174.5 -65.5 q-108 0 -178 70q-46 46 -67.5 107.5t-21.5 166.5q0 163 78.5 271.5t206.5 108.5q103 0 202 -81z"/>
<glyph glyph-name="seven" horiz-adv-x="587" unicode="7" d="M68 650v50h464v-38l-319 -662h-57l318 650h-406z"/>
<glyph glyph-name="eight" horiz-adv-x="630" unicode="8" d="M521 186q0 65 -59.5 108t-146.5 43t-146.5 -43t-59.5 -108q0 -62 56 -105.5t150 -43.5t150 43.5t56 105.5zM497 526q0 59 -52.5 98t-129.5 39t-129.5 -39t-52.5 -98q0 -64 53 -104.5t129 -40.5t129 40.5t53 104.5zM575 188q0 -87 -74.5 -142.5t-185.5 -55.5t-185.5 55.5 t-74.5 142.5q0 60 43 105.5t112 68.5q-131 53 -131 164q0 80 71 132t165 52t165 -52t71 -132q0 -111 -131 -164q69 -23 112 -68.5t43 -105.5z"/>
<glyph glyph-name="nine" horiz-adv-x="642" unicode="9" d="M505 486q0 76 -56.5 127.5t-142.5 51.5q-83 0 -134.5 -55t-51.5 -132q0 -74 53.5 -122.5t136.5 -48.5q86 0 140.5 54.5t54.5 124.5zM578 367q0 -165 -81 -272t-204 -107q-108 0 -211 87l33 40q89 -80 179 -80q102 0 167 94.5t65 242.5v24q-75 -135 -218 -135 q-105 0 -173.5 61.5t-68.5 153.5q0 99 69 167.5t177 68.5q107 0 178 -71q88 -88 88 -274z"/>
<glyph glyph-name="colon" horiz-adv-x="240" unicode=":" d="M153 0h-66v85h66v-85zM153 425h-66v85h66v-85z"/>
<glyph glyph-name="semicolon" horiz-adv-x="240" unicode=";" d="M58 -82q56 28 56 73v9h-27v85h66v-74q0 -47 -19 -74t-64 -44zM153 425h-66v85h66v-85z"/>
<glyph glyph-name="less" d="M73 372l464 241v-54l-403 -206l403 -208v-54l-464 241v40z" unicode="&lt;"/>
<glyph glyph-name="equal" d="M93 265h454v-51h-454v51zM93 490h454v-51h-454v51z" unicode="="/>
<glyph glyph-name="greater" d="M567 332l-464 -241v54l403 206l-403 208v54l464 -241v-40z" unicode="&gt;"/>
<glyph glyph-name="question" horiz-adv-x="534" unicode="?" d="M278 0h-66v85h66v-85zM221 350q98 2 153 45t55 116q0 64 -45.5 108t-120.5 44q-109 0 -193 -103l-36 30q46 58 101 88.5t130 30.5q97 0 157 -56.5t60 -139.5q0 -89 -59.5 -141.5t-152.5 -63.5l-9 -125h-32l-13 162z"/>
<glyph glyph-name="at" horiz-adv-x="980" unicode="@" d="M626 313q0 59 -37.5 99t-94.5 40q-70 0 -125.5 -57.5t-55.5 -139.5q0 -63 36.5 -99t96.5 -36q70 0 125 59.5t55 133.5zM927 316q0 -119 -55 -181t-127 -62q-52 0 -87.5 25t-48.5 68q-75 -93 -171 -93q-74 0 -125.5 50t-51.5 128q0 103 72.5 176t160.5 73q102 0 149 -89 l14 75l48 -6l-37 -211q-9 -53 -9 -72q0 -43 23.5 -65.5t66.5 -22.5q58 0 101 53t43 154q0 91 -51.5 174.5t-145.5 136.5t-205 53q-172 0 -288 -118.5t-116 -287.5q0 -170 116.5 -287t295.5 -117q134 0 250 68l15 -25q-123 -75 -265 -75q-190 0 -318 127.5t-128 308.5 q0 180 127.5 309t310.5 129q182 0 309 -118t127 -278z"/>
<glyph glyph-name="A" horiz-adv-x="790" unicode="A" d="M578 243l-184 405l-185 -405h369zM746 0h-57l-89 196h-413l-89 -196h-54l326 705h50z"/>
<glyph glyph-name="B" horiz-adv-x="722" unicode="B" d="M606 191v2q0 65 -55 100.5t-158 35.5h-237v-281h254q90 0 143 38.5t53 104.5zM567 521v2q0 59 -46 94t-129 35h-236v-275h231q81 0 130.5 38t49.5 106zM659 191q0 -87 -68.5 -139t-182.5 -52h-304v700h289q102 0 164.5 -47t62.5 -125v-2q0 -118 -119 -166 q158 -41 158 -167v-2z"/>
<glyph glyph-name="C" horiz-adv-x="738" unicode="C" d="M699 110q-61 -60 -126 -91t-152 -31q-149 0 -248.5 104t-99.5 256v2q0 150 100 256t250 106q87 0 149.5 -28.5t122.5 -83.5l-37 -38q-106 103 -236 103q-126 0 -210.5 -90.5t-84.5 -222.5v-2q0 -133 85.5 -224t210.5 -91q73 0 129 27t112 82z"/>
<glyph glyph-name="D" horiz-adv-x="782" unicode="D" d="M655 348v2q0 128 -87.5 215t-230.5 87h-181v-604h181q143 0 230.5 86t87.5 214zM709 350q0 -150 -104.5 -250t-267.5 -100h-233v700h233q163 0 267.5 -99.5t104.5 -248.5v-2z"/>
<glyph glyph-name="E" horiz-adv-x="670" unicode="E" d="M607 0h-503v700h498v-48h-446v-275h401v-48h-401v-281h451v-48z"/>
<glyph glyph-name="F" horiz-adv-x="656" unicode="F" d="M597 652h-441v-287h396v-48h-396v-317h-52v700h493v-48z"/>
<glyph glyph-name="G" horiz-adv-x="784" unicode="G" d="M700 93q-52 -46 -123.5 -75.5t-151.5 -29.5q-161 0 -256.5 103.5t-95.5 256.5v2q0 147 97 254.5t249 107.5q81 0 140.5 -23t115.5 -69l-34 -39q-96 84 -225 84q-125 0 -207 -92t-82 -221v-2q0 -139 81 -227.5t219 -88.5q63 0 122.5 22.5t100.5 57.5v201h-234v48h284v-270 z"/>
<glyph glyph-name="H" horiz-adv-x="760" unicode="H" d="M656 0h-52v328h-448v-328h-52v700h52v-324h448v324h52v-700z"/>
<glyph glyph-name="I" horiz-adv-x="274" unicode="I" d="M163 0h-52v700h52v-700z"/>
<glyph glyph-name="J" horiz-adv-x="549" unicode="J" d="M456 228q0 -114 -58 -176t-149 -62q-139 0 -212 131l43 27q34 -57 73.5 -84t98.5 -27q67 0 109.5 49t42.5 138v476h52v-472z"/>
<glyph glyph-name="K" horiz-adv-x="715" unicode="K" d="M686 0h-68l-288 354l-174 -176v-178h-52v700h52v-460l446 460h71l-306 -309z"/>
<glyph glyph-name="L" horiz-adv-x="619" unicode="L" d="M567 0h-463v700h52v-652h411v-48z"/>
<glyph glyph-name="M" horiz-adv-x="868" unicode="M" d="M764 0h-52v608l-277 -403h-4l-277 403v-608h-50v700h49l281 -414l281 414h49v-700z"/>
<glyph glyph-name="N" horiz-adv-x="790" unicode="N" d="M686 0h-39l-493 622v-622h-50v700h49l483 -609v609h50v-700z"/>
<glyph glyph-name="O" horiz-adv-x="850" unicode="O" d="M723 348v2q0 131 -85.5 223t-213.5 92t-212.5 -91t-84.5 -222v-2q0 -131 85.5 -223t213.5 -92t212.5 91t84.5 222zM777 350q0 -148 -99 -255t-254 -107t-253 106t-98 254v2q0 148 99 255t254 107t253 -106t98 -254l1 -1z"/>
<glyph glyph-name="P" horiz-adv-x="668" unicode="P" d="M566 481v2q0 81 -57.5 125t-154.5 44h-198v-343h192q98 0 158 47t60 125zM618 484q0 -106 -78.5 -164.5t-194.5 -58.5h-189v-261h-52v700h254q117 0 188.5 -57t71.5 -157v-2z"/>
<glyph glyph-name="Q" horiz-adv-x="850" unicode="Q" d="M723 348v2q0 131 -85.5 223t-213.5 92t-212.5 -91t-84.5 -222v-2q0 -131 85.5 -223t213.5 -92q107 0 186 66l-136 116l37 41l134 -122q76 89 76 212zM785 19l-37 -40l-98 89q-94 -80 -226 -80q-155 0 -253 106t-98 254v2q0 148 99 255t254 107t253 -106t98 -254 q1 -1 0 -2q0 -144 -92 -247z"/>
<glyph glyph-name="R" horiz-adv-x="723" unicode="R" d="M596 497v2q0 71 -53 112t-148 41h-239v-315h236q90 0 147 43t57 117zM674 0h-66l-223 290h-229v-290h-52v700h294q113 0 181.5 -55.5t68.5 -143.5v-2q0 -85 -56 -136t-149 -64z"/>
<glyph glyph-name="S" d="M573 181q0 -84 -65 -137.5t-167 -53.5q-157 0 -282 112l34 39q59 -55 117 -79.5t134 -24.5q78 0 127.5 39.5t49.5 99.5v2q0 58 -41.5 92t-156.5 57q-126 25 -181 71t-55 126v2q0 78 64 131t161 53q74 0 129.5 -20.5t110.5 -64.5l-33 -41q-91 79 -209 79q-76 0 -123.5 -38 t-47.5 -94v-2q0 -59 42.5 -94t161.5 -59q121 -25 175.5 -70.5t54.5 -122.5v-2z" unicode="S"/>
<glyph glyph-name="T" horiz-adv-x="648" unicode="T" d="M594 652h-244v-652h-52v652h-244v48h540v-48z"/>
<glyph glyph-name="U" horiz-adv-x="760" unicode="U" d="M667 297q0 -147 -78 -227.5t-209 -80.5q-129 0 -208 79t-79 223v409h52v-404q0 -123 63 -191.5t174 -68.5q109 0 171 65.5t62 189.5v409h52v-403z"/>
<glyph glyph-name="V" horiz-adv-x="750" unicode="V" d="M706 700l-308 -705h-46l-308 705h58l274 -644l275 644h55z"/>
<glyph glyph-name="W" horiz-adv-x="1102" unicode="W" d="M1052 700l-254 -705h-42l-205 608l-205 -608h-42l-254 705h58l220 -623l205 625h40l205 -625l220 623h54z"/>
<glyph glyph-name="X" horiz-adv-x="722" unicode="X" d="M671 0h-62l-249 323l-248 -323h-61l279 357l-269 343h62l239 -308l238 308h61l-268 -342z"/>
<glyph glyph-name="Y" horiz-adv-x="716" unicode="Y" d="M684 700l-300 -422v-278h-52v277l-300 423h65l262 -376l263 376h62z"/>
<glyph glyph-name="Z" horiz-adv-x="688" unicode="Z" d="M621 0h-553v29l479 624h-462v47h536v-29l-479 -624h479v-47z"/>
<glyph glyph-name="bracketleft" horiz-adv-x="430" unicode="[" d="M371 700v-38h-227v-754h227v-38h-273v830h273z"/>
<glyph glyph-name="backslash" horiz-adv-x="500" unicode="\" d="M46 798l472 -926h-49l-472 926h49z"/>
<glyph glyph-name="bracketright" horiz-adv-x="430" unicode="]" d="M59 700h273v-830h-273v38h227v754h-227v38z"/>
<glyph glyph-name="asciicircum" horiz-adv-x="500" unicode="^" d="M249 660l-128 -167h-51l158 210h44l158 -210h-53z"/>
<glyph glyph-name="underscore" horiz-adv-x="600" unicode="_" d="M-2 -116h604v-44h-604v44z"/>
<glyph glyph-name="grave" horiz-adv-x="500" unicode="`" d="M264 595l-107 103l61 30l88 -133h-42z"/>
<glyph glyph-name="a" horiz-adv-x="574" unicode="a" d="M444 191v58q-90 23 -173 23q-80 0 -124 -32.5t-44 -86.5v-2q0 -53 43.5 -85t104.5 -32q80 0 136.5 44.5t56.5 112.5zM491 0h-48v85q-69 -97 -195 -97q-78 0 -137.5 42.5t-59.5 117.5v2q0 78 61 122t162 44q86 0 169 -22v22q0 76 -44 116t-124 40t-160 -41l-18 43 q95 44 181 44q100 0 156.5 -51.5t56.5 -148.5v-318z"/>
<glyph glyph-name="b" horiz-adv-x="660" unicode="b" d="M547 253v2q0 98 -58.5 159t-141.5 61t-145.5 -62.5t-62.5 -156.5v-2q0 -95 62.5 -157t145.5 -62q86 0 143 59t57 159zM600 255q0 -119 -75 -193t-173 -74q-130 0 -210 122v-110h-49v730h49v-334q83 126 210 126q98 0 173 -73t75 -192v-2z"/>
<glyph glyph-name="c" horiz-adv-x="571" unicode="c" d="M526 89q-89 -101 -208 -101q-109 0 -184.5 78.5t-75.5 186.5v2q0 108 76 187.5t184 79.5q114 0 204 -94l-35 -36q-82 84 -170 84q-87 0 -146.5 -63.5t-59.5 -155.5v-2q0 -92 61 -156.5t149 -64.5q95 0 171 85z"/>
<glyph glyph-name="d" horiz-adv-x="660" unicode="d" d="M521 254v2q0 95 -62.5 157t-145.5 62q-86 0 -143 -59t-57 -159v-2q0 -98 58.5 -159t141.5 -61t145.5 62.5t62.5 156.5zM567 0h-49v114q-83 -126 -210 -126q-98 0 -173 73t-75 192v2q0 119 75 193t173 74q130 0 210 -122v330h49v-730z"/>
<glyph glyph-name="e" horiz-adv-x="584" unicode="e" d="M110 279h371q-6 84 -53 141t-130 57q-75 0 -128 -56.5t-60 -141.5zM110 235q7 -92 64.5 -146.5t135.5 -54.5q100 0 175 80l34 -30q-89 -96 -211 -96q-103 0 -176.5 75t-73.5 191v2q0 112 69.5 189t172.5 77q105 0 169.5 -76t64.5 -191v-2q0 -10 -1 -18h-423z"/>
<glyph glyph-name="f" horiz-adv-x="362" unicode="f" d="M351 675q-42 13 -76 13q-103 0 -103 -129v-49h178v-45h-178v-465h-49v465h-74v45h74v50q0 82 40 127.5t112 45.5q41 0 76 -12v-46z"/>
<glyph glyph-name="g" horiz-adv-x="660" unicode="g" d="M521 279v2q0 85 -63.5 139.5t-147.5 54.5q-83 0 -140 -53t-57 -140v-2q0 -84 58 -139.5t139 -55.5q83 0 147 55t64 139zM567 79q0 -114 -69 -177.5t-181 -63.5q-129 0 -234 78l29 40q93 -72 206 -72q91 0 145.5 51t54.5 147v74q-82 -118 -213 -118q-97 0 -171 67.5 t-74 172.5v2q0 106 74 174t171 68q133 0 213 -114v102h49v-431z"/>
<glyph glyph-name="h" horiz-adv-x="613" unicode="h" d="M530 0h-49v303q0 80 -43 127t-119 47t-126.5 -51.5t-50.5 -130.5v-295h-49v730h49v-315q61 107 184 107q95 0 149.5 -58.5t54.5 -151.5v-312z"/>
<glyph glyph-name="i" horiz-adv-x="249" unicode="i" d="M149 0h-49v510h49v-510zM155 643h-61v67h61v-67z"/>
<glyph glyph-name="j" horiz-adv-x="249" unicode="j" d="M149 -45q0 -58 -29 -88t-80 -30q-21 0 -41 4v43q18 -3 40 -3q28 0 44.5 18t16.5 53v558h49v-555zM155 643h-61v67h61v-67z"/>
<glyph glyph-name="k" horiz-adv-x="560" unicode="k" d="M530 0h-62l-202 249l-124 -125v-124h-49v730h49v-547l316 327h65l-223 -226z"/>
<glyph glyph-name="l" horiz-adv-x="249" unicode="l" d="M149 0h-49v730h49v-730z"/>
<glyph glyph-name="m" horiz-adv-x="951" unicode="m" d="M864 0h-49v303q0 82 -40 128t-111 46q-67 0 -114 -49t-47 -131v-297h-49v306q0 79 -40.5 125t-108.5 46t-115.5 -53t-47.5 -130v-294h-49v510h49v-91q30 48 69 75.5t101 27.5q120 0 172 -110q64 110 184 110q90 0 143 -58t53 -155v-309z"/>
<glyph glyph-name="n" horiz-adv-x="613" unicode="n" d="M530 0h-49v303q0 80 -43 127t-119 47t-126.5 -51.5t-50.5 -130.5v-295h-49v510h49v-95q61 107 184 107q95 0 149.5 -58.5t54.5 -151.5v-312z"/>
<glyph glyph-name="o" d="M529 253v2q0 92 -61 156.5t-149 64.5q-90 0 -149 -64t-59 -155v-2q0 -92 61 -156.5t149 -64.5q90 0 149 64t59 155zM582 255q0 -109 -75.5 -188t-187.5 -79t-186.5 78t-74.5 187v2q0 109 75.5 188t187.5 79t186.5 -78t74.5 -187v-2z" unicode="o"/>
<glyph glyph-name="p" horiz-adv-x="660" unicode="p" d="M547 253v2q0 98 -58.5 159t-141.5 61t-145.5 -62.5t-62.5 -156.5v-2q0 -95 62.5 -157t145.5 -62q86 0 143 59t57 159zM600 255q0 -119 -75 -193t-173 -74q-130 0 -210 122v-270h-49v670h49v-114q83 126 210 126q98 0 173 -73t75 -192v-2z"/>
<glyph glyph-name="q" horiz-adv-x="660" unicode="q" d="M521 254v2q0 95 -62.5 157t-145.5 62q-86 0 -143 -59t-57 -159v-2q0 -98 58.5 -159t141.5 -61t145.5 62.5t62.5 156.5zM567 -160h-49v274q-83 -126 -210 -126q-98 0 -173 73t-75 192v2q0 119 75 193t173 74q130 0 210 -122v110h49v-670z"/>
<glyph glyph-name="r" horiz-adv-x="400" unicode="r" d="M368 464h-5q-93 0 -157 -68t-64 -187v-209h-49v510h49v-145q30 68 88 110.5t129 42.5h9v-54z"/>
<glyph glyph-name="s" horiz-adv-x="497" unicode="s" d="M434 139q0 -67 -50.5 -108t-125.5 -41q-55 0 -111.5 20.5t-97.5 53.5l29 39q87 -67 183 -67q53 0 88 27t35 70v2q0 17 -7.5 31.5t-19 24.5t-31 19t-36 14.5t-41.5 12.5q-35 10 -51 15t-45 18t-42.5 25.5t-25 34t-11.5 47.5v2q0 62 47 101.5t121 39.5q97 0 181 -56 l-26 -41q-77 51 -157 51q-52 0 -84 -25t-32 -64v-2q0 -16 8.5 -30t20 -23t33 -18.5t37 -14.5t43.5 -13q38 -11 62 -20t51.5 -25.5t41 -41t13.5 -56.5v-2z"/>
<glyph glyph-name="t" horiz-adv-x="400" unicode="t" d="M346 9q-39 -18 -83 -18q-63 0 -103 35.5t-40 104.5v334h-74v45h74v163h49v-163h179v-45h-179v-329q0 -99 102 -99q35 0 75 18v-46z"/>
<glyph glyph-name="u" horiz-adv-x="613" unicode="u" d="M520 0h-49v95q-61 -107 -184 -107q-95 0 -149.5 58.5t-54.5 151.5v312h49v-303q0 -80 43 -127t119 -47t126.5 51.5t50.5 130.5v295h49v-510z"/>
<glyph glyph-name="v" horiz-adv-x="582" unicode="v" d="M541 510l-229 -514h-42l-229 514h57l193 -455l195 455h55z"/>
<glyph glyph-name="w" horiz-adv-x="861" unicode="w" d="M812 510l-187 -514h-42l-152 437l-153 -437h-42l-187 514h55l154 -448l154 450h39l154 -450l154 448h53z"/>
<glyph glyph-name="x" horiz-adv-x="570" unicode="x" d="M525 0h-61l-180 227l-180 -227h-59l209 260l-201 250h61l172 -216l172 216h59l-201 -249z"/>
<glyph glyph-name="y" horiz-adv-x="588" unicode="y" d="M546 510l-221 -528q-33 -78 -73.5 -111.5t-96.5 -33.5q-51 0 -101 22l17 43q39 -19 87 -19q40 0 69 27t57 93l-245 507h57l212 -456l184 456h54z"/>
<glyph glyph-name="z" horiz-adv-x="554" unicode="z" d="M499 0h-441v28l368 438h-354v44h427v-28l-368 -438h368v-44z"/>
<glyph glyph-name="braceleft" horiz-adv-x="480" unicode="{" d="M423 683q-58 -15 -91 -29.5t-50.5 -36.5t-22.5 -45.5t-5 -65.5v-75q0 -63 -26.5 -96t-77.5 -48q54 -18 79 -49.5t25 -94.5v-75q0 -42 5 -65.5t22.5 -45.5t50.5 -36.5t91 -29.5l-7 -32q-66 12 -108.5 30.5t-64.5 45t-30 56t-8 71.5v79q0 63 -26.5 95t-93.5 32h-26v38h26 q67 0 93.5 32t26.5 95v79q0 42 8 71.5t30 56t64.5 45t108.5 30.5z"/>
<glyph glyph-name="bar" horiz-adv-x="286" unicode="|" d="M165 -128h-44v926h44v-926z"/>
<glyph glyph-name="braceright" horiz-adv-x="480" unicode="}" d="M57 -109q58 15 91 29.5t50.5 36.5t22.5 45.5t5 65.5v75q0 63 26.5 96t77.5 48q-54 18 -79 49.5t-25 94.5v75q0 42 -5 65.5t-22.5 45.5t-50.5 36.5t-91 29.5l7 32q66 -12 108.5 -30.5t64.5 -45t30 -56t8 -71.5v-79q0 -63 26.5 -95t93.5 -32h26v-38h-26q-67 0 -93.5 -32 t-26.5 -95v-79q0 -42 -8 -71.5t-30 -56t-64.5 -45t-108.5 -30.5z"/>
<glyph glyph-name="asciitilde" horiz-adv-x="460" unicode="~" d="M378 344q-14 -52 -33.5 -72.5t-50.5 -20.5q-20 0 -65.5 20.5t-62.5 20.5q-18 0 -28.5 -10.5t-21.5 -39.5l-34 9q14 52 33.5 72.5t50.5 20.5q20 0 66 -20.5t62 -20.5q18 0 28.5 10.5t21.5 39.5z"/>
<glyph glyph-name="nbspace" horiz-adv-x="300" unicode=" "/>
<glyph glyph-name="exclamdown" horiz-adv-x="252" unicode="¡" d="M155 0h-58v70l15 447h28l15 -447v-70zM93 700h66v-85h-66v85z"/>
<glyph glyph-name="cent" horiz-adv-x="581" unicode="¢" d="M330 576h-9q-87 0 -146.5 -64t-59.5 -156q0 -70 36.5 -126t96.5 -81zM530 189q-89 -101 -208 -101q-20 0 -39 3l-19 -97h-50l22 109q-77 27 -125.5 96.5t-48.5 154.5q0 109 76 188.5t184 79.5h15l16 84h50l-18 -91q73 -15 141 -87l-35 -36q-64 64 -118 78l-83 -433 q17 -3 35 -3q95 0 171 85z"/>
<glyph glyph-name="sterling" horiz-adv-x="644" unicode="£" d="M156 353v118q0 107 57.5 173t157.5 66q129 0 210 -106l-40 -31q-35 44 -74 67t-97 23q-78 0 -120.5 -51t-42.5 -140v-119h298v-48h-298v-258h374v-47h-511v25l86 20v260h-86v48h86z"/>
<glyph glyph-name="currency" horiz-adv-x="720" unicode="¤" d="M144 416h-85v48h94q28 110 100.5 179t167.5 69q147 0 240 -140l-40 -27q-43 63 -88.5 92t-113.5 29q-74 0 -132 -56t-83 -146h284v-48h-293q-5 -35 -5 -65q0 -29 3 -58h295v-48h-286q24 -95 85 -153t144 -58q111 0 194 128l38 -25q-97 -149 -235 -149q-102 0 -177.5 70.5 t-101.5 186.5h-90v48h83q-3 27 -3 56q0 30 5 67z"/>
<glyph glyph-name="yen" horiz-adv-x="686" unicode="¥" d="M368 268v-98h213v-45h-213v-125h-50v125h-213v45h213v98h-213v45h195l-268 387h63l249 -373l250 373h60l-269 -387h196v-45h-213z"/>
<glyph glyph-name="section" horiz-adv-x="632" unicode="§" d="M515 332q0 30 -34 53.5t-123 45.5q-65 16 -112 16q-57 0 -93 -23.5t-36 -55.5q0 -30 34 -53.5t123 -45.5q64 -16 112 -16q57 0 93 23.5t36 55.5zM567 336q0 -45 -40 -75.5t-108 -38.5q86 -38 86 -106q0 -57 -48 -91.5t-128 -34.5q-65 0 -124.5 26t-102.5 69l38 36 q80 -82 194 -82q57 0 86.5 21.5t29.5 56.5q0 34 -41 58.5t-142 48.5q-111 27 -156.5 58.5t-45.5 81.5q0 45 40 75.5t108 38.5q-86 38 -86 106q0 57 48 91.5t128 34.5q65 0 124.5 -26t102.5 -69l-38 -36q-80 82 -194 82q-57 0 -86.5 -21.5t-29.5 -56.5q0 -34 41 -58.5 t142 -48.5q111 -27 156.5 -58.5t45.5 -81.5z"/>
<glyph glyph-name="dieresis" horiz-adv-x="500" unicode="¨" d="M203 595h-69v80h69v-80zM366 595h-69v80h69v-80z"/>
<glyph glyph-name="copyright" horiz-adv-x="830" unicode="©" d="M563 230q-66 -64 -144 -64q-77 0 -129.5 55t-52.5 134q0 78 52.5 134t130.5 56q77 0 141 -61l-30 -31q-54 52 -112 52q-60 0 -99 -43.5t-39 -105.5t40.5 -106t98.5 -44q60 0 115 52zM747 351q0 139 -95 236t-236 97t-237 -98t-96 -237t95 -236t236 -97t237 98t96 237z M777 351q0 -149 -106 -256t-257 -107t-256 106t-105 255t106 256t257 107t256 -106t105 -255z"/>
<glyph glyph-name="ordfeminine" horiz-adv-x="390" unicode="ª" d="M272 524v27q-36 11 -85 11q-39 0 -60.5 -16t-21.5 -42q0 -27 20.5 -42t50.5 -15q39 0 67.5 21.5t28.5 55.5zM314 293h-252v40h252v-40zM309 417h-37v41q-36 -47 -98 -47q-44 0 -76.5 24t-32.5 67q0 44 34 69t90 25q41 0 83 -11v5q0 38 -22 57.5t-61 19.5q-37 0 -88 -24 l-13 34q55 26 103 26q56 0 87 -28.5t31 -83.5v-174z"/>
<glyph glyph-name="guillemotleft" horiz-adv-x="515" unicode="«" d="M211 468l37 -24l-137 -188l137 -190l-37 -24l-160 209v8zM415 468l37 -24l-137 -188l137 -190l-37 -24l-160 209v8z"/>
<glyph glyph-name="registered" horiz-adv-x="830" unicode="®" d="M530 435q0 31 -24.5 49t-67.5 18h-119v-138h114q43 0 70 18.5t27 52.5zM575 437q0 -43 -27 -70t-73 -36l122 -154h-56l-116 147h-106v-147h-43v366h164q59 0 97 -29t38 -77zM747 351q0 139 -95 236t-236 97t-237 -98t-96 -237t95 -236t236 -97t237 98t96 237zM777 351 q0 -149 -106 -256t-257 -107t-256 106t-105 255t106 256t257 107t256 -106t105 -255z"/>
<glyph glyph-name="macron" horiz-adv-x="500" unicode="¯" d="M400 600h-300v53h300v-53z"/>
<glyph glyph-name="degree" horiz-adv-x="450" unicode="°" d="M326 559q0 41 -29 72t-72 31t-72 -31t-29 -72t29 -72t72 -31t72 31t29 72zM376 559q0 -59 -45.5 -103t-105.5 -44t-105.5 44t-45.5 103t45.5 103t105.5 44t105.5 -44t45.5 -103z"/>
<glyph glyph-name="plusminus" horiz-adv-x="600" unicode="±" d="M537 185q0 -83 -66.5 -140t-167.5 -57q-81 0 -148 35.5t-110 93.5l42 31q85 -113 218 -113q77 0 127.5 41t50.5 108q0 69 -54.5 107.5t-152.5 38.5h-70v46h71q82 0 134.5 39.5t52.5 107.5q0 62 -46.5 102t-121.5 40q-117 0 -195 -107l-40 24q88 130 237 130 q95 0 157.5 -53.5t62.5 -133.5q0 -122 -133 -167q69 -20 110.5 -63.5t41.5 -109.5z"/>
<glyph glyph-name="acute" horiz-adv-x="500" unicode="´" d="M236 595h-42l88 133l61 -30z"/>
<glyph glyph-name="mu" horiz-adv-x="850" unicode="µ" d="M723 349q0 132 -85.5 224t-213.5 92t-212.5 -91t-84.5 -223t85.5 -224t213.5 -92t212.5 91t84.5 223zM777 351q0 -85 -35.5 -161t-99.5 -127l170 -160v-4h-75l-142 131q-78 -42 -171 -42q-155 0 -253 106t-98 255q0 96 43.5 178.5t125 133.5t184.5 51q155 0 253 -106 t98 -255z"/>
<glyph glyph-name="paragraph" horiz-adv-x="480" unicode="¶" d="M312 700h74v-700h-53v277h-6q-120 0 -197 56.5t-77 155.5q0 98 71.5 154.5t187.5 56.5z"/>
<glyph glyph-name="periodcentered" horiz-adv-x="230" unicode="·" d="M148 255h-66v85h66v-85z"/>
<glyph glyph-name="cedilla" horiz-adv-x="500" unicode="¸" d="M252 10h43l-78 -158l-55 26z"/>
<glyph glyph-name="ordmasculine" horiz-adv-x="390" unicode="º" d="M296 557q0 46 -29.5 77.5t-72.5 31.5q-44 0 -72 -31t-28 -76q0 -46 29.5 -77.5t72.5 -31.5q44 0 72 31t28 76zM339 293h-288v40h288v-40zM339 559q0 -61 -41.5 -104.5t-103.5 -43.5q-61 0 -102 43t-41 103q0 61 41.5 104.5t103.5 43.5q61 0 102 -43t41 -103z"/>
<glyph glyph-name="guillemotright" horiz-adv-x="515" unicode="»" d="M100 42l-37 24l137 188l-137 190l37 24l160 -209v-8zM304 42l-37 24l137 188l-137 190l37 24l160 -209v-8z"/>
<glyph glyph-name="questiondown" horiz-adv-x="534" unicode="¿" d="M313 350q-98 -2 -153 -45t-55 -116q0 -64 45.5 -108t120.5 -44q109 0 193 103l36 -30q-46 -58 -101 -88.5t-130 -30.5q-97 0 -157 56.5t-60 139.5q0 89 59.5 141.5t152.5 63.5l9 125h32l13 -162zM256 700h66v-85h-66v85z"/>
<glyph glyph-name="Agrave" horiz-adv-x="790" unicode="À" d="M370 765l-107 103l61 30l88 -133h-42zM578 243l-184 405l-185 -405h369zM746 0h-57l-89 196h-413l-89 -196h-54l326 705h50z"/>
<glyph glyph-name="Aacute" horiz-adv-x="790" unicode="Á" d="M420 765h-42l88 133l61 -30zM578 243l-184 405l-185 -405h369zM746 0h-57l-89 196h-413l-89 -196h-54l326 705h50z"/>
<glyph glyph-name="Acircumflex" horiz-adv-x="790" unicode="Â" d="M394 828l-74 -68h-45l100 122h40l100 -122h-47zM578 243l-184 405l-185 -405h369zM746 0h-57l-89 196h-413l-89 -196h-54l326 705h50z"/>
<glyph glyph-name="Atilde" horiz-adv-x="790" unicode="Ã" d="M543 858q-14 -52 -33.5 -72.5t-50.5 -20.5q-19 0 -65 20.5t-63 20.5q-18 0 -28.5 -10.5t-21.5 -39.5l-34 9q14 52 33.5 72.5t50.5 20.5q19 0 65 -20.5t63 -20.5q18 0 28.5 10.5t21.5 39.5zM578 243l-184 405l-185 -405h369zM746 0h-57l-89 196h-413l-89 -196h-54l326 705 h50z"/>
<glyph glyph-name="Adieresis" horiz-adv-x="790" unicode="Ä" d="M348 765h-69v80h69v-80zM511 765h-69v80h69v-80zM578 243l-184 405l-185 -405h369zM746 0h-57l-89 196h-413l-89 -196h-54l326 705h50z"/>
<glyph glyph-name="Aring" horiz-adv-x="790" unicode="Å" d="M578 243l-184 405l-185 -405h369zM457 764q0 26 -18.5 44t-43.5 18t-43.5 -18t-18.5 -44t18.5 -44t43.5 -18t43.5 18t18.5 44zM357 678q-26 11 -43 34t-17 52q0 39 29.5 66.5t68.5 27.5t68.5 -27.5t29.5 -66.5q0 -29 -17 -52t-43 -34l313 -678h-57l-89 196h-413l-89 -196 h-54z"/>
<glyph glyph-name="AE" horiz-adv-x="1045" unicode="Æ" d="M468 653l-246 -410h272v410h-26zM194 196l-118 -196h-56l424 700h533v-48h-431v-275h386v-48h-386v-281h436v-48h-488v196h-300z"/>
<glyph glyph-name="Ccedilla" horiz-adv-x="738" unicode="Ç" d="M388 -11q-137 13 -226 115t-89 245q0 152 100 257.5t250 105.5q87 0 149.5 -28.5t122.5 -83.5l-37 -38q-106 103 -236 103q-126 0 -210.5 -90t-84.5 -224t85.5 -225t210.5 -91q73 0 129 27t112 82l35 -34q-58 -57 -120.5 -88t-144.5 -34l-67 -136l-55 26z"/>
<glyph glyph-name="Egrave" horiz-adv-x="670" unicode="È" d="M349 765l-107 103l61 30l88 -133h-42zM607 0h-503v700h498v-48h-446v-275h401v-48h-401v-281h451v-48z"/>
<glyph glyph-name="Eacute" horiz-adv-x="670" unicode="É" d="M351 765h-42l88 133l61 -30zM607 0h-503v700h498v-48h-446v-275h401v-48h-401v-281h451v-48z"/>
<glyph glyph-name="Ecircumflex" horiz-adv-x="670" unicode="Ê" d="M348 833l-74 -68h-45l100 122h40l100 -122h-47zM607 0h-503v700h498v-48h-446v-275h401v-48h-401v-281h451v-48z"/>
<glyph glyph-name="Edieresis" horiz-adv-x="670" unicode="Ë" d="M302 765h-69v80h69v-80zM465 765h-69v80h69v-80zM607 0h-503v700h498v-48h-446v-275h401v-48h-401v-281h451v-48z"/>
<glyph glyph-name="Igrave" horiz-adv-x="274" unicode="Ì" d="M114 765l-107 103l61 30l88 -133h-42zM163 0h-52v700h52v-700z"/>
<glyph glyph-name="Iacute" horiz-adv-x="274" unicode="Í" d="M160 765h-42l88 133l61 -30zM163 0h-52v700h52v-700z"/>
<glyph glyph-name="Icircumflex" horiz-adv-x="274" unicode="Î" d="M137 833l-74 -68h-45l100 122h40l100 -122h-47zM163 0h-52v700h52v-700z"/>
<glyph glyph-name="Idieresis" horiz-adv-x="274" unicode="Ï" d="M91 765h-69v80h69v-80zM254 765h-69v80h69v-80zM163 0h-52v700h52v-700z"/>
<glyph glyph-name="Eth" horiz-adv-x="812" unicode="Ð" d="M186 376h232v-48h-232v-280h181q143 0 230.5 86t87.5 215t-87.5 216t-230.5 87h-181v-276zM134 328h-75v48h75v324h233q163 0 267.5 -99.5t104.5 -249.5t-104.5 -250.5t-267.5 -100.5h-233v328z"/>
<glyph glyph-name="Ntilde" horiz-adv-x="790" unicode="Ñ" d="M543 858q-14 -52 -33.5 -72.5t-50.5 -20.5q-19 0 -65 20.5t-63 20.5q-18 0 -28.5 -10.5t-21.5 -39.5l-34 9q14 52 33.5 72.5t50.5 20.5q19 0 65 -20.5t63 -20.5q18 0 28.5 10.5t21.5 39.5zM686 0h-39l-493 622v-622h-50v700h49l483 -609v609h50v-700z"/>
<glyph glyph-name="Ograve" horiz-adv-x="850" unicode="Ò" d="M399 765l-107 103l61 30l88 -133h-42zM723 348v2q0 131 -85.5 223t-213.5 92t-212.5 -91t-84.5 -222v-2q0 -131 85.5 -223t213.5 -92t212.5 91t84.5 222zM777 350q0 -148 -99 -255t-254 -107t-253 106t-98 254v2q0 148 99 255t254 107t253 -106t98 -254l1 -1z"/>
<glyph glyph-name="Oacute" horiz-adv-x="850" unicode="Ó" d="M451 765h-42l88 133l61 -30zM723 348v2q0 131 -85.5 223t-213.5 92t-212.5 -91t-84.5 -222v-2q0 -131 85.5 -223t213.5 -92t212.5 91t84.5 222zM777 350q0 -148 -99 -255t-254 -107t-253 106t-98 254v2q0 148 99 255t254 107t253 -106t98 -254l1 -1z"/>
<glyph glyph-name="Ocircumflex" horiz-adv-x="850" unicode="Ô" d="M424 833l-74 -68h-45l100 122h40l100 -122h-47zM723 348v2q0 131 -85.5 223t-213.5 92t-212.5 -91t-84.5 -222v-2q0 -131 85.5 -223t213.5 -92t212.5 91t84.5 222zM777 350q0 -148 -99 -255t-254 -107t-253 106t-98 254v2q0 148 99 255t254 107t253 -106t98 -254l1 -1z "/>
<glyph glyph-name="Otilde" horiz-adv-x="850" unicode="Õ" d="M573 858q-14 -52 -33.5 -72.5t-50.5 -20.5q-19 0 -65 20.5t-63 20.5q-18 0 -28.5 -10.5t-21.5 -39.5l-34 9q14 52 33.5 72.5t50.5 20.5q19 0 65 -20.5t63 -20.5q18 0 28.5 10.5t21.5 39.5zM723 348v2q0 131 -85.5 223t-213.5 92t-212.5 -91t-84.5 -222v-2 q0 -131 85.5 -223t213.5 -92t212.5 91t84.5 222zM777 350q0 -148 -99 -255t-254 -107t-253 106t-98 254v2q0 148 99 255t254 107t253 -106t98 -254l1 -1z"/>
<glyph glyph-name="Odieresis" horiz-adv-x="850" unicode="Ö" d="M378 765h-69v80h69v-80zM541 765h-69v80h69v-80zM723 348v2q0 131 -85.5 223t-213.5 92t-212.5 -91t-84.5 -222v-2q0 -131 85.5 -223t213.5 -92t212.5 91t84.5 222zM777 350q0 -148 -99 -255t-254 -107t-253 106t-98 254v2q0 148 99 255t254 107t253 -106t98 -254l1 -1z "/>
<glyph glyph-name="Oslash" horiz-adv-x="850" unicode="Ø" d="M724 349q0 122 -74 212l-421 -452q83 -75 197 -75q129 0 213.5 91t84.5 224zM621 591q-83 75 -197 75q-129 0 -213.5 -91t-84.5 -224q0 -122 74 -212zM777 351q0 -96 -43.5 -178.5t-125 -133.5t-184.5 -51q-134 0 -228 83l-71 -76h-60l100 106q-92 103 -92 248 q0 96 43.5 178.5t125 133.5t184.5 51q134 0 228 -83l71 76h60l-100 -107q92 -101 92 -247z"/>
<glyph glyph-name="Ugrave" horiz-adv-x="760" unicode="Ù" d="M363 760l-107 103l61 30l88 -133h-42zM667 297q0 -147 -78 -227.5t-209 -80.5q-129 0 -208 79t-79 223v409h52v-404q0 -123 63 -191.5t174 -68.5q109 0 171 65.5t62 189.5v409h52v-403z"/>
<glyph glyph-name="Uacute" horiz-adv-x="760" unicode="Ú" d="M397 760h-42l88 133l61 -30zM667 297q0 -147 -78 -227.5t-209 -80.5q-129 0 -208 79t-79 223v409h52v-404q0 -123 63 -191.5t174 -68.5q109 0 171 65.5t62 189.5v409h52v-403z"/>
<glyph glyph-name="Ucircumflex" horiz-adv-x="760" unicode="Û" d="M379 828l-74 -68h-45l100 122h40l100 -122h-47zM667 297q0 -147 -78 -227.5t-209 -80.5q-129 0 -208 79t-79 223v409h52v-404q0 -123 63 -191.5t174 -68.5q109 0 171 65.5t62 189.5v409h52v-403z"/>
<glyph glyph-name="Udieresis" horiz-adv-x="760" unicode="Ü" d="M333 760h-69v80h69v-80zM496 760h-69v80h69v-80zM667 297q0 -147 -78 -227.5t-209 -80.5q-129 0 -208 79t-79 223v409h52v-404q0 -123 63 -191.5t174 -68.5q109 0 171 65.5t62 189.5v409h52v-403z"/>
<glyph glyph-name="Yacute" horiz-adv-x="716" unicode="Ý" d="M382 760h-42l88 133l61 -30zM684 700l-300 -422v-278h-52v277l-300 423h65l262 -376l263 376h62z"/>
<glyph glyph-name="Thorn" horiz-adv-x="673" unicode="Þ" d="M566 355q0 82 -57.5 126t-154.5 44h-198v-344h192q98 0 158 47.5t60 126.5zM618 358q0 -106 -78.5 -165.5t-194.5 -59.5h-189v-133h-52v700h52v-127h202q117 0 188.5 -57.5t71.5 -157.5z"/>
<glyph glyph-name="germandbls" horiz-adv-x="620" unicode="ß" d="M512 561q0 -69 -45.5 -118t-111.5 -73q88 -15 145 -59.5t57 -120.5q0 -90 -72 -141t-196 -51v43q101 2 158 39.5t57 107.5q0 131 -215 154v41q170 52 170 176q0 58 -41.5 95t-107.5 37q-74 0 -121 -52t-47 -139v-500h-49v500q0 105 60 171t160 66q89 0 144 -50t55 -126z "/>
<glyph glyph-name="agrave" horiz-adv-x="574" unicode="à" d="M264 595l-107 103l61 30l88 -133h-42zM444 191v58q-90 23 -173 23q-80 0 -124 -32.5t-44 -86.5v-2q0 -53 43.5 -85t104.5 -32q80 0 136.5 44.5t56.5 112.5zM491 0h-48v85q-69 -97 -195 -97q-78 0 -137.5 42.5t-59.5 117.5v2q0 78 61 122t162 44q86 0 169 -22v22 q0 76 -44 116t-124 40t-160 -41l-18 43q95 44 181 44q100 0 156.5 -51.5t56.5 -148.5v-318z"/>
<glyph glyph-name="aacute" horiz-adv-x="574" unicode="á" d="M298 595h-42l88 133l61 -30zM444 191v58q-90 23 -173 23q-80 0 -124 -32.5t-44 -86.5v-2q0 -53 43.5 -85t104.5 -32q80 0 136.5 44.5t56.5 112.5zM491 0h-48v85q-69 -97 -195 -97q-78 0 -137.5 42.5t-59.5 117.5v2q0 78 61 122t162 44q86 0 169 -22v22q0 76 -44 116 t-124 40t-160 -41l-18 43q95 44 181 44q100 0 156.5 -51.5t56.5 -148.5v-318z"/>
<glyph glyph-name="acircumflex" horiz-adv-x="574" unicode="â" d="M289 663l-74 -68h-45l100 122h40l100 -122h-47zM444 191v58q-90 23 -173 23q-80 0 -124 -32.5t-44 -86.5v-2q0 -53 43.5 -85t104.5 -32q80 0 136.5 44.5t56.5 112.5zM491 0h-48v85q-69 -97 -195 -97q-78 0 -137.5 42.5t-59.5 117.5v2q0 78 61 122t162 44q86 0 169 -22v22 q0 76 -44 116t-124 40t-160 -41l-18 43q95 44 181 44q100 0 156.5 -51.5t56.5 -148.5v-318z"/>
<glyph glyph-name="atilde" horiz-adv-x="574" unicode="ã" d="M438 688q-14 -52 -33.5 -72.5t-50.5 -20.5q-19 0 -65 20.5t-63 20.5q-18 0 -28.5 -10.5t-21.5 -39.5l-34 9q14 52 33.5 72.5t50.5 20.5q19 0 65.5 -20.5t62.5 -20.5q18 0 28.5 10.5t21.5 39.5zM444 191v58q-90 23 -173 23q-80 0 -124 -32.5t-44 -86.5v-2q0 -53 43.5 -85 t104.5 -32q80 0 136.5 44.5t56.5 112.5zM491 0h-48v85q-69 -97 -195 -97q-78 0 -137.5 42.5t-59.5 117.5v2q0 78 61 122t162 44q86 0 169 -22v22q0 76 -44 116t-124 40t-160 -41l-18 43q95 44 181 44q100 0 156.5 -51.5t56.5 -148.5v-318z"/>
<glyph glyph-name="adieresis" horiz-adv-x="574" unicode="ä" d="M243 595h-69v80h69v-80zM406 595h-69v80h69v-80zM444 191v58q-90 23 -173 23q-80 0 -124 -32.5t-44 -86.5v-2q0 -53 43.5 -85t104.5 -32q80 0 136.5 44.5t56.5 112.5zM491 0h-48v85q-69 -97 -195 -97q-78 0 -137.5 42.5t-59.5 117.5v2q0 78 61 122t162 44q86 0 169 -22 v22q0 76 -44 116t-124 40t-160 -41l-18 43q95 44 181 44q100 0 156.5 -51.5t56.5 -148.5v-318z"/>
<glyph glyph-name="aring" horiz-adv-x="574" unicode="å" d="M352 687q0 25 -18 43.5t-44 18.5t-44 -18.5t-18 -43.5t18 -43.5t44 -18.5t44 18.5t18 43.5zM388 687q0 -39 -29.5 -66.5t-68.5 -27.5t-68.5 27.5t-29.5 66.5t29.5 66.5t68.5 27.5t68.5 -27.5t29.5 -66.5zM444 191v58q-90 23 -173 23q-80 0 -124 -32.5t-44 -86.5v-2 q0 -53 43.5 -85t104.5 -32q80 0 136.5 44.5t56.5 112.5zM491 0h-48v85q-69 -97 -195 -97q-78 0 -137.5 42.5t-59.5 117.5v2q0 78 61 122t162 44q86 0 169 -22v22q0 76 -44 116t-124 40t-160 -41l-18 43q95 44 181 44q100 0 156.5 -51.5t56.5 -148.5v-318z"/>
<glyph glyph-name="ae" horiz-adv-x="954" unicode="æ" d="M428 250q-95 22 -162 22q-77 0 -120 -32.5t-43 -87.5q0 -54 41 -86t102 -32q118 0 204 107q-21 52 -22 109zM480 279h371q-6 84 -53 141t-130 57q-75 0 -128 -56.5t-60 -141.5zM472 100q-97 -112 -229 -112q-77 0 -134.5 42.5t-57.5 118.5q0 79 60 123t158 44 q77 0 160 -22v22q0 76 -42 116t-119 40q-73 0 -153 -41l-18 43q93 44 174 44q158 0 193 -128q31 60 85.5 96t120.5 36q105 0 169.5 -76t64.5 -192q0 -11 -1 -19h-423q7 -92 64.5 -146.5t135.5 -54.5q100 0 175 80l34 -30q-89 -96 -211 -96q-63 0 -117.5 29.5t-88.5 82.5z "/>
<glyph glyph-name="ccedilla" horiz-adv-x="571" unicode="ç" d="M284 -10q-97 13 -161.5 88.5t-64.5 175.5q0 109 76 188.5t184 79.5q114 0 204 -94l-35 -36q-82 84 -170 84q-87 0 -146.5 -64t-59.5 -156q0 -93 61 -157.5t149 -64.5q95 0 171 85l34 -30q-86 -96 -196 -101l-67 -136l-55 26z"/>
<glyph glyph-name="egrave" horiz-adv-x="584" unicode="è" d="M286 595l-107 103l61 30l88 -133h-42zM110 279h371q-6 84 -53 141t-130 57q-75 0 -128 -56.5t-60 -141.5zM110 235q7 -92 64.5 -146.5t135.5 -54.5q100 0 175 80l34 -30q-89 -96 -211 -96q-103 0 -176.5 75t-73.5 191v2q0 112 69.5 189t172.5 77q105 0 169.5 -76 t64.5 -191v-2q0 -10 -1 -18h-423z"/>
<glyph glyph-name="eacute" horiz-adv-x="584" unicode="é" d="M299 595h-42l88 133l61 -30zM110 279h371q-6 84 -53 141t-130 57q-75 0 -128 -56.5t-60 -141.5zM110 235q7 -92 64.5 -146.5t135.5 -54.5q100 0 175 80l34 -30q-89 -96 -211 -96q-103 0 -176.5 75t-73.5 191v2q0 112 69.5 189t172.5 77q105 0 169.5 -76t64.5 -191v-2 q0 -10 -1 -18h-423z"/>
<glyph glyph-name="ecircumflex" horiz-adv-x="584" unicode="ê" d="M296 663l-74 -68h-45l100 122h40l100 -122h-47zM110 279h371q-6 84 -53 141t-130 57q-75 0 -128 -56.5t-60 -141.5zM110 235q7 -92 64.5 -146.5t135.5 -54.5q100 0 175 80l34 -30q-89 -96 -211 -96q-103 0 -176.5 75t-73.5 191v2q0 112 69.5 189t172.5 77 q105 0 169.5 -76t64.5 -191v-2q0 -10 -1 -18h-423z"/>
<glyph glyph-name="edieresis" horiz-adv-x="584" unicode="ë" d="M250 595h-69v80h69v-80zM413 595h-69v80h69v-80zM110 279h371q-6 84 -53 141t-130 57q-75 0 -128 -56.5t-60 -141.5zM110 235q7 -92 64.5 -146.5t135.5 -54.5q100 0 175 80l34 -30q-89 -96 -211 -96q-103 0 -176.5 75t-73.5 191v2q0 112 69.5 189t172.5 77 q105 0 169.5 -76t64.5 -191v-2q0 -10 -1 -18h-423z"/>
<glyph glyph-name="igrave" horiz-adv-x="249" unicode="ì" d="M102 595l-107 103l61 30l88 -133h-42zM149 0h-49v510h49v-510z"/>
<glyph glyph-name="iacute" horiz-adv-x="249" unicode="í" d="M147 595h-42l88 133l61 -30zM149 0h-49v510h49v-510z"/>
<glyph glyph-name="icircumflex" horiz-adv-x="249" unicode="î" d="M123 663l-74 -68h-45l100 122h40l100 -122h-47zM149 0h-49v510h49v-510z"/>
<glyph glyph-name="idieresis" horiz-adv-x="249" unicode="ï" d="M77 595h-69v80h69v-80zM240 595h-69v80h69v-80zM149 0h-49v510h49v-510z"/>
<glyph glyph-name="eth" horiz-adv-x="628" unicode="ð" d="M515 243q0 82 -61 140.5t-150 58.5q-87 0 -140 -57t-53 -144q0 -83 58.5 -145t144.5 -62q88 0 144.5 61.5t56.5 147.5zM328 631l-133 -68l-29 36l137 67l-45 64h63l27 -41l98 50l28 -36l-102 -50l109 -161q44 -66 65.5 -121t21.5 -123q0 -107 -72.5 -183.5t-186.5 -76.5 q-107 0 -179 75.5t-72 180.5q0 106 71 174t169 68q95 0 177 -63z"/>
<glyph glyph-name="ntilde" horiz-adv-x="613" unicode="ñ" d="M459 688q-14 -52 -33.5 -72.5t-50.5 -20.5q-19 0 -65 20.5t-63 20.5q-18 0 -28.5 -10.5t-21.5 -39.5l-34 9q14 52 33.5 72.5t50.5 20.5q19 0 65 -20.5t63 -20.5q18 0 28.5 10.5t21.5 39.5zM530 0h-49v303q0 80 -43 127t-119 47t-126.5 -51.5t-50.5 -130.5v-295h-49v510 h49v-95q61 107 184 107q95 0 149.5 -58.5t54.5 -151.5v-312z"/>
<glyph glyph-name="ograve" d="M298 595l-107 103l61 30l88 -133h-42zM529 253v2q0 92 -61 156.5t-149 64.5q-90 0 -149 -64t-59 -155v-2q0 -92 61 -156.5t149 -64.5q90 0 149 64t59 155zM582 255q0 -109 -75.5 -188t-187.5 -79t-186.5 78t-74.5 187v2q0 109 75.5 188t187.5 79t186.5 -78t74.5 -187v-2z " unicode="ò"/>
<glyph glyph-name="oacute" d="M342 595h-42l88 133l61 -30zM529 253v2q0 92 -61 156.5t-149 64.5q-90 0 -149 -64t-59 -155v-2q0 -92 61 -156.5t149 -64.5q90 0 149 64t59 155zM582 255q0 -109 -75.5 -188t-187.5 -79t-186.5 78t-74.5 187v2q0 109 75.5 188t187.5 79t186.5 -78t74.5 -187v-2z" unicode="ó"/>
<glyph glyph-name="ocircumflex" d="M319 663l-74 -68h-45l100 122h40l100 -122h-47zM529 253v2q0 92 -61 156.5t-149 64.5q-90 0 -149 -64t-59 -155v-2q0 -92 61 -156.5t149 -64.5q90 0 149 64t59 155zM582 255q0 -109 -75.5 -188t-187.5 -79t-186.5 78t-74.5 187v2q0 109 75.5 188t187.5 79t186.5 -78 t74.5 -187v-2z" unicode="ô"/>
<glyph glyph-name="otilde" d="M468 688q-14 -52 -33.5 -72.5t-50.5 -20.5q-20 0 -66 20.5t-62 20.5q-18 0 -28.5 -10.5t-21.5 -39.5l-34 9q14 52 33.5 72.5t50.5 20.5q20 0 66 -20.5t62 -20.5q18 0 28.5 10.5t21.5 39.5zM529 253v2q0 92 -61 156.5t-149 64.5q-90 0 -149 -64t-59 -155v-2 q0 -92 61 -156.5t149 -64.5q90 0 149 64t59 155zM582 255q0 -109 -75.5 -188t-187.5 -79t-186.5 78t-74.5 187v2q0 109 75.5 188t187.5 79t186.5 -78t74.5 -187v-2z" unicode="õ"/>
<glyph glyph-name="odieresis" d="M273 595h-69v80h69v-80zM436 595h-69v80h69v-80zM529 253v2q0 92 -61 156.5t-149 64.5q-90 0 -149 -64t-59 -155v-2q0 -92 61 -156.5t149 -64.5q90 0 149 64t59 155zM582 255q0 -109 -75.5 -188t-187.5 -79t-186.5 78t-74.5 187v2q0 109 75.5 188t187.5 79t186.5 -78 t74.5 -187v-2z" unicode="ö"/>
<glyph glyph-name="oslash" d="M530 254q0 82 -48 143l-299 -312q58 -52 138 -52q91 0 150 63.5t59 157.5zM457 424q-59 53 -138 53q-91 0 -150 -63.5t-59 -157.5q0 -82 47 -143zM582 256q0 -110 -75.5 -189t-187.5 -79q-96 0 -167 60l-52 -53h-57l79 82q-64 77 -64 177q0 110 75.5 189t187.5 79 q96 0 167 -61l52 56h57l-80 -84q65 -75 65 -177z" unicode="ø"/>
<glyph glyph-name="ugrave" horiz-adv-x="613" unicode="ù" d="M289 590l-107 103l61 30l88 -133h-42zM520 0h-49v95q-61 -107 -184 -107q-95 0 -149.5 58.5t-54.5 151.5v312h49v-303q0 -80 43 -127t119 -47t126.5 51.5t50.5 130.5v295h49v-510z"/>
<glyph glyph-name="uacute" horiz-adv-x="613" unicode="ú" d="M319 590h-42l88 133l61 -30zM520 0h-49v95q-61 -107 -184 -107q-95 0 -149.5 58.5t-54.5 151.5v312h49v-303q0 -80 43 -127t119 -47t126.5 51.5t50.5 130.5v295h49v-510z"/>
<glyph glyph-name="ucircumflex" horiz-adv-x="613" unicode="û" d="M307 663l-74 -68h-45l100 122h40l100 -122h-47zM520 0h-49v95q-61 -107 -184 -107q-95 0 -149.5 58.5t-54.5 151.5v312h49v-303q0 -80 43 -127t119 -47t126.5 51.5t50.5 130.5v295h49v-510z"/>
<glyph glyph-name="udieresis" horiz-adv-x="613" unicode="ü" d="M261 595h-69v80h69v-80zM424 595h-69v80h69v-80zM520 0h-49v95q-61 -107 -184 -107q-95 0 -149.5 58.5t-54.5 151.5v312h49v-303q0 -80 43 -127t119 -47t126.5 51.5t50.5 130.5v295h49v-510z"/>
<glyph glyph-name="yacute" horiz-adv-x="588" unicode="ý" d="M323 590h-42l88 133l61 -30zM546 510l-221 -528q-33 -78 -73.5 -111.5t-96.5 -33.5q-51 0 -101 22l17 43q39 -19 87 -19q40 0 69 27t57 93l-245 507h57l212 -456l184 456h54z"/>
<glyph glyph-name="thorn" horiz-adv-x="660" unicode="þ" d="M547 254q0 98 -58.5 159.5t-141.5 61.5t-145.5 -62.5t-62.5 -157.5q0 -96 62.5 -158t145.5 -62q86 0 143 59t57 160zM600 256q0 -120 -75 -194t-173 -74q-130 0 -210 122v-270h-49v890h49v-334q83 126 210 126q98 0 173 -73.5t75 -192.5z"/>
</font>
</defs>
</svg>
